PathFileType	4	(X/Y/Z)	/home/abdul/Desktop/myosuite/custom_workspace/IK/output/S16_12_1.trc
DataRate	CameraRate	NumFrames	NumMarkers	Units	OrigDataRate	OrigDataStartFrame	OrigNumFrames
200.0	200.0	39	3	mm	200.0	457	1216
Frame#	Time	V_Shoulder			V_Elbow			V_Wrist		
		X1	Y1	Z1	X2	Y2	Z2	X3	Y3	Z3

457	2.28	-114.55792470568127	615.8062358068493	306.45753809253165	-224.4175117141438	447.91835891057116	56.63642396947518	-81.17453814238377	384.247470044013	262.1419457244442
458	2.285	-114.71240381210036	616.2177071079136	306.4493326819494	-224.46611937509704	447.9457876994995	56.982217357523766	-81.23352766556346	384.9922605536693	262.47819049397737
459	2.29	-114.86270422472239	616.6226584424804	306.440070744929	-224.5196488814484	447.97789177360687	57.32233455746528	-81.29260365060698	385.72180573850346	262.79999046047334
460	2.295	-115.00886833823056	617.021091865896	306.42978533298174	-224.5778397920683	448.01467310926466	57.65655878242984	-81.35175203382053	386.43671103812136	263.10819824191566
461	2.3	-115.15094077325251	617.413011592528	306.41850939044514	-224.64043163392353	448.056122598444	57.98468235703811	-81.41096168876285	387.13757431118364	263.40364434676405
462	2.305	-115.28896828720093	617.7984238889959	306.40627566951645	-224.70716487621445	448.10222066021754	58.306506677352026	-81.47022406761619	387.824983693171	263.68713585204966
463	2.31	-115.42299968400293	618.1773369709503	306.39311664770815	-224.77778188237585	448.15293786467595	58.621842153028894	-81.52953284392504	388.4995154562161	263.95945513945094
464	2.315	-115.55308572282682	618.5497609035104	306.3790644479488	-224.85202783746365	448.2082355667027	58.930508132992784	-81.58888355913216	389.16173187708944	264.2213586889048
465	2.32	-115.6792790259131	618.9157075054532	306.36415076154276	-224.92965164857017	448.268066547074	59.23233281598338	-81.64827327525319	389.8121791195606	264.4735759292597
466	2.325	-115.80163398561525	619.2751902572157	306.3484067741909	-225.01040681602814	448.33237565838215	59.52715314738252	-81.70770023593214	390.45138513747384	264.71680814543964
467	2.33	-115.92020667075519	619.628224212767	306.33186309526474	-225.09405227328813	448.40110047331774	59.81481470375076	-81.76716353800808	391.0798576049691	264.9517274415652
468	2.335	-116.03505473239703	619.9748259153765	306.31454969051345	-225.18035319347598	448.4741719328911	60.09517156653055	-81.82666281560329	391.6980818803528	265.1789757594722
469	2.34	-116.14623730914202	620.315013317292	306.29649581837174	-225.26908176076216	448.5515149922214	60.36808618638847	-81.88619793861162	392.30651901017274	265.39916395207047
470	2.345	-116.25381493204647	620.6488057033185	306.27772997002444	-225.36001790479872	448.63304926157764	60.63342923967727	-81.94576872732839	392.90560378007353	265.61287091100473
471	2.35	-116.35784942926405	620.9762236182801	306.2582798133685	-225.4529499966063	448.71868964041516	60.89107947849806	-82.0053746848171	393.4957428190154	265.82064274810773
472	2.355	-116.45840383051349	621.2972887983182	306.2381721410008	-225.54767550441824	448.808346942218	61.140923575833995	-82.06501474845804	394.07731276341474	266.02299203017617
473	2.36	-116.55554227147172	621.6120241059757	306.21743282234576	-225.6440016081147	448.9019285080294	61.38285596720953	-82.12468706196756	394.6506584877183	266.220397066651
474	2.365	-116.64932989819239	621.920453468997	306.19608676002173	-225.74174577100538	448.99933880662576	61.61677869030363	-82.18438876901774	395.2160914078563	266.4133012498402
475	2.37	-116.73983277165003	622.2226018227562	306.1741578505302	-225.8407362678441	449.1004800193755	61.84260122391089	-82.24411582942453	395.7738878639203	266.60211244739276
476	2.375	-116.8271177725088	622.5184950562222	306.15166894933697	-225.94081266808297	449.205252607905	62.06024032760237	-82.30386285870954	396.3242875882985	266.78720244680545
477	2.38	-116.91125250621576	622.8081599613475	306.1286418404002	-226.0418262734977	449.31355586278664	62.26961988338672	-82.36362299167735	396.8674922653538	266.96890645182236
478	2.385	-116.99230520851795	623.0916241857662	306.1050972101818	-226.1436405094392	449.42528843156	62.47067074061381	-82.4233877704877	397.4036641885695	267.147522630676
479	2.39	-117.07034465150292	623.3689161886679	306.08105462616624	-226.24613126908898	449.54034882449264	62.663330565296505	-82.48314705754112	397.9329250208939	267.32331171620467
480	2.395	-117.14544005026248	623.6400651997111	306.05653251989435	-226.34918721021646	449.6586358965947	62.84754369495232	-82.54288897333862	398.45535466380596	267.4964966579721
481	2.4	-117.21766097027928	623.9051011808324	306.0315481745015	-226.45271000405955	449.7800493045045	63.02326099998577	-82.60259985932073	398.97099024039017	267.6672623266094
482	2.405	-117.2870772356368	624.1640547907966	306.0061177167388	-226.5566145360672	449.90448993697544	63.19043975254475	-82.662264265542	399.47982519745125	267.83575527069
483	2.41	-117.35375883815254	624.4169573523302	305.9802561134375	-226.66082905836365	450.03186031780865	63.34904350369003	-82.72186496289049	399.9818085314247	268.00208352654045
484	2.415	-117.417775847535	624.6638408216776	305.9539771723616	-226.76529529391075	450.16206498019136	63.499041969617856	-82.78138297942323	400.47684414254127	268.166316481477
485	2.42	-117.47919832266547	624.9047377604116	305.92729354737986	-226.8699684924639	450.29501081152347	63.64041092757056	-82.84079766025465	400.96479032138586	268.3284847910461
486	2.425	-117.53809622410522	625.1396813093311	305.90021674787494	-226.97481743853098	450.43060736793586	63.773132121960884	-82.90008675030893	401.4454593716571	268.48858035092206
487	2.43	-117.59453932792896	625.3687051642738	305.8727571522897	-227.07982441166166	450.56876715783017	63.89719318112249	-82.95922649912806	401.91861737257966	268.6465563241943
488	2.435	-117.64859714098588	625.5918435536772	305.84492402570163	-227.18498509950703	450.7094058938971	64.01258754498228	-83.01819178681623	402.38398408405	268.80232722483913
489	2.44	-117.70033881768848	625.809131217712	305.81672554129847	-227.2903084642031	450.8524427131981	64.11931440383152	-83.07695627009747	402.84123299720846	268.9557690582325
490	2.445	-117.74983307843063	626.0206033888243	305.7881688056197	-227.3958165627442	450.99780036502716	64.21737864825118	-83.13549254736853	403.2899915327315	269.1067195196073
491	2.45	-117.79714812973464	626.2262957735169	305.7592598874133	-227.50154432212292	451.1454053663972	64.3067908301255	-83.19377234154274	403.7298413887175	269.2549782513996
492	2.455	-117.84235158622766	626.4262445352042	305.7300038499477	-227.6075392701229	451.2951881251323	64.38756713455508	-83.25176669940203	404.1603190396097	269.4003071604538
493	2.46	-117.88551039454649	626.6204862779874	305.70040478660576	-227.71386122275936	451.44708303067205	64.45972936235901	-83.30944620610558	404.58091638715996	269.542430796074
494	2.465	-117.9266907592693	626.8090580311867	305.6704658595798	-227.82058192946783	451.60102851283045	64.52330492273505	-83.36678121344204	404.9910815639799	269.68103678990974
495	2.47	-117.96595807097229	626.9919972344869	305.64018934147725	-227.92778467724878	451.75696706888004	64.57832683552883	-83.42374208036088	405.39021988976344	269.81577635865625
